<svg xmlns="http://www.w3.org/2000/svg" xmlns:xlink="http://www.w3.org/1999/xlink" width="250" zoomAndPan="magnify" viewBox="0 0 187.5 37.5" height="50" preserveAspectRatio="xMidYMid meet" version="1.0"><defs><g/><clipPath id="e4dbf21bd2"><path d="M 29.226562 2.394531 L 57.292969 2.394531 L 57.292969 32.390625 L 29.226562 32.390625 Z M 29.226562 2.394531 " clip-rule="nonzero"/></clipPath></defs><g fill="#eb5066" fill-opacity="1"><g transform="translate(59.809532, 30.545909)"><g><path d="M 1.738281 -3.3125 C 1.8125 -3.265625 1.855469 -3.238281 1.902344 -3.207031 C 2.09375 -3.027344 2.316406 -2.867188 2.507812 -2.671875 C 3.324219 -1.78125 4.144531 -0.890625 4.972656 0 C 5.078125 0.117188 5.195312 0.253906 5.332031 0.339844 C 5.671875 0.5625 6.132812 0.550781 6.414062 0.3125 C 6.726562 0.0585938 6.84375 -0.339844 6.695312 -0.742188 C 6.652344 -0.859375 6.578125 -0.964844 6.503906 -1.082031 C 6.175781 -1.589844 5.761719 -2.035156 5.359375 -2.496094 C 4.632812 -3.324219 3.875 -4.097656 2.96875 -4.738281 C 2.835938 -4.8125 2.730469 -4.914062 2.597656 -5.003906 C 2.554688 -5.035156 2.480469 -5.078125 2.40625 -5.121094 C 2.628906 -5.316406 2.820312 -5.449219 2.984375 -5.613281 C 3.773438 -6.386719 4.574219 -7.171875 5.359375 -7.957031 C 5.671875 -8.285156 5.953125 -8.640625 6.238281 -8.984375 C 6.414062 -9.175781 6.519531 -9.398438 6.5625 -9.667969 C 6.621094 -10.140625 6.207031 -10.484375 5.746094 -10.304688 C 5.613281 -10.261719 5.492188 -10.171875 5.375 -10.066406 C 4.632812 -9.382812 3.90625 -8.6875 3.164062 -8.019531 C 2.730469 -7.617188 2.285156 -7.246094 1.855469 -6.859375 C 1.78125 -6.800781 1.707031 -6.757812 1.589844 -6.683594 C 1.574219 -6.84375 1.558594 -6.964844 1.542969 -7.066406 C 1.5 -7.808594 1.457031 -8.539062 1.410156 -9.28125 C 1.394531 -9.578125 1.1875 -9.785156 0.90625 -9.785156 C 0.636719 -9.785156 0.414062 -9.59375 0.386719 -9.324219 C 0.355469 -9.101562 0.339844 -8.878906 0.328125 -8.65625 C 0.28125 -7.675781 0.238281 -6.695312 0.191406 -5.714844 C 0.191406 -5.613281 0.148438 -5.507812 0.105469 -5.417969 C 0 -5.183594 -0.03125 -4.929688 0.0898438 -4.707031 C 0.207031 -4.46875 0.222656 -4.21875 0.222656 -3.964844 C 0.238281 -3.535156 0.253906 -3.101562 0.28125 -2.671875 C 0.3125 -2.433594 0.355469 -2.199219 0.445312 -1.976562 C 0.550781 -1.707031 0.800781 -1.589844 1.082031 -1.617188 C 1.351562 -1.648438 1.53125 -1.828125 1.574219 -2.125 C 1.617188 -2.40625 1.648438 -2.703125 1.679688 -2.984375 C 1.691406 -3.089844 1.707031 -3.175781 1.738281 -3.3125 Z M 4.722656 -0.996094 C 4.78125 -0.933594 4.855469 -0.859375 4.914062 -0.800781 C 5.078125 -0.636719 5.242188 -0.476562 5.40625 -0.339844 C 5.671875 -0.132812 5.96875 0.0429688 6.339844 -0.132812 C 6.324219 0.015625 6.238281 0.0898438 6.148438 0.117188 C 6.042969 0.132812 5.910156 0.164062 5.804688 0.132812 C 5.242188 -0.03125 4.929688 -0.460938 4.648438 -0.933594 C 4.675781 -0.949219 4.691406 -0.980469 4.722656 -0.996094 Z M 0.5625 -3 C 0.683594 -2.582031 0.742188 -2.167969 1.15625 -1.976562 C 1.039062 -1.855469 0.949219 -1.886719 0.859375 -1.929688 C 0.5625 -2.0625 0.371094 -2.613281 0.5625 -3 Z M 6.164062 -10.050781 C 5.96875 -9.933594 5.777344 -9.828125 5.613281 -9.710938 C 5.449219 -9.59375 5.300781 -9.445312 5.109375 -9.265625 C 5.109375 -9.371094 5.09375 -9.398438 5.109375 -9.429688 C 5.285156 -9.695312 5.507812 -9.933594 5.820312 -10.082031 C 5.925781 -10.125 6.058594 -10.15625 6.164062 -10.050781 Z M 1.113281 -9.53125 C 0.890625 -9.457031 0.757812 -9.371094 0.710938 -9.175781 C 0.667969 -9.027344 0.625 -8.878906 0.550781 -8.730469 C 0.488281 -8.96875 0.476562 -9.207031 0.609375 -9.414062 C 0.726562 -9.605469 0.90625 -9.652344 1.113281 -9.53125 Z M 0.355469 -4.722656 C 0.105469 -5.003906 0.117188 -5.257812 0.402344 -5.433594 C 0.386719 -5.195312 0.371094 -4.988281 0.355469 -4.722656 Z M 0.355469 -4.722656 "/></g></g></g><g fill="#eb5066" fill-opacity="1"><g transform="translate(69.237762, 30.545909)"><g><path d="M 3.015625 -7.378906 C 2.878906 -7.140625 2.777344 -6.964844 2.671875 -6.769531 C 2.390625 -6.296875 2.078125 -5.820312 1.828125 -5.316406 C 1.515625 -4.722656 1.246094 -4.128906 0.996094 -3.519531 C 0.625 -2.628906 0.386719 -1.722656 0.488281 -0.757812 C 0.519531 -0.488281 0.652344 -0.3125 0.890625 -0.222656 C 1.128906 -0.117188 1.382812 -0.132812 1.558594 -0.339844 C 1.707031 -0.503906 1.828125 -0.699219 1.914062 -0.890625 C 2.136719 -1.367188 2.316406 -1.839844 2.539062 -2.300781 C 2.894531 -3.027344 3.25 -3.757812 3.636719 -4.453125 C 4.039062 -5.152344 4.441406 -5.851562 4.722656 -6.59375 C 4.898438 -7.039062 5.078125 -7.484375 4.988281 -7.988281 C 4.945312 -8.300781 4.8125 -8.554688 4.558594 -8.730469 C 4.230469 -8.953125 3.847656 -9.027344 3.460938 -9.011719 C 2.96875 -9 2.464844 -8.953125 1.960938 -8.863281 C 1.441406 -8.789062 0.90625 -8.703125 0.414062 -8.480469 C 0.132812 -8.34375 0 -8.152344 0.015625 -7.839844 C 0.03125 -7.601562 0.207031 -7.351562 0.460938 -7.304688 C 0.683594 -7.261719 0.90625 -7.277344 1.128906 -7.277344 C 1.382812 -7.289062 1.632812 -7.335938 1.902344 -7.351562 C 2.109375 -7.363281 2.332031 -7.378906 2.554688 -7.378906 C 2.703125 -7.394531 2.835938 -7.378906 3.015625 -7.378906 Z M 0.996094 -2.109375 C 0.980469 -2.035156 0.980469 -1.960938 0.980469 -1.886719 C 0.980469 -1.617188 0.964844 -1.367188 0.980469 -1.097656 C 0.996094 -0.933594 1.070312 -0.785156 1.21875 -0.683594 C 1.261719 -0.652344 1.261719 -0.578125 1.292969 -0.519531 C 1.21875 -0.519531 1.144531 -0.488281 1.097656 -0.519531 C 0.890625 -0.625 0.773438 -0.800781 0.757812 -1.039062 C 0.726562 -1.382812 0.773438 -1.722656 0.890625 -2.035156 C 0.890625 -2.0625 0.921875 -2.09375 0.933594 -2.125 C 0.949219 -2.125 0.964844 -2.109375 0.996094 -2.109375 Z M 3.132812 -6.859375 C 3.132812 -6.933594 3.132812 -6.992188 3.148438 -7.054688 C 3.191406 -7.171875 3.25 -7.289062 3.296875 -7.425781 C 3.324219 -7.511719 3.3125 -7.585938 3.191406 -7.601562 C 3.117188 -7.632812 3.027344 -7.648438 2.910156 -7.691406 C 3.015625 -7.808594 3.132812 -7.808594 3.238281 -7.796875 C 3.371094 -7.78125 3.460938 -7.722656 3.503906 -7.585938 C 3.546875 -7.363281 3.371094 -6.980469 3.132812 -6.859375 Z M 0.402344 -8.179688 C 0.429688 -7.898438 0.59375 -7.765625 0.773438 -7.632812 C 0.800781 -7.601562 0.816406 -7.558594 0.832031 -7.511719 C 0.832031 -7.5 0.773438 -7.46875 0.742188 -7.46875 C 0.550781 -7.46875 0.460938 -7.601562 0.371094 -7.75 C 0.265625 -7.914062 0.28125 -8.03125 0.402344 -8.179688 Z M 0.402344 -8.179688 "/></g></g></g><g fill="#eb5066" fill-opacity="1"><g transform="translate(76.914032, 30.545909)"><g><path d="M 5.480469 -4.367188 C 5.480469 -4.75 5.480469 -5.136719 5.480469 -5.507812 C 5.449219 -5.640625 5.417969 -5.761719 5.417969 -5.894531 C 5.375 -6.414062 5.257812 -6.917969 5.046875 -7.394531 C 4.898438 -7.75 4.707031 -8.09375 4.351562 -8.285156 C 4.097656 -8.417969 3.800781 -8.492188 3.519531 -8.582031 C 3.429688 -8.613281 3.339844 -8.628906 3.265625 -8.640625 C 2.539062 -8.703125 1.945312 -8.390625 1.425781 -7.929688 C 0.816406 -7.394531 0.445312 -6.695312 0.253906 -5.910156 C 0.132812 -5.449219 0.03125 -4.988281 0.015625 -4.5 C 0.015625 -4.144531 -0.015625 -3.773438 0.03125 -3.414062 C 0.105469 -2.96875 0.265625 -2.539062 0.476562 -2.125 C 0.683594 -1.679688 0.964844 -1.292969 1.351562 -0.996094 C 1.796875 -0.667969 2.316406 -0.503906 2.894531 -0.578125 C 3.238281 -0.625 3.5625 -0.710938 3.859375 -0.875 C 4.277344 -1.097656 4.574219 -1.457031 4.78125 -1.886719 C 5.136719 -2.554688 5.300781 -3.28125 5.417969 -4.007812 C 5.433594 -4.128906 5.449219 -4.246094 5.480469 -4.367188 Z M 2.125 -4.144531 C 2.167969 -4.824219 2.167969 -5.523438 2.449219 -6.175781 C 2.628906 -6.5625 2.792969 -6.933594 3.207031 -7.097656 C 3.636719 -7.289062 3.785156 -7.214844 3.964844 -6.800781 C 4.070312 -6.546875 4.144531 -6.265625 4.1875 -6 C 4.230469 -5.613281 4.292969 -5.226562 4.261719 -4.839844 C 4.230469 -4.144531 4.144531 -3.429688 3.832031 -2.792969 C 3.726562 -2.570312 3.578125 -2.375 3.339844 -2.273438 C 3.117188 -2.199219 2.835938 -2.257812 2.703125 -2.449219 C 2.347656 -2.953125 2.078125 -3.503906 2.125 -4.144531 Z M 3.386719 -1.070312 C 3.296875 -0.90625 3.175781 -0.875 3.042969 -0.875 C 2.019531 -0.847656 0.949219 -1.664062 0.699219 -2.65625 C 0.699219 -2.671875 0.699219 -2.671875 0.699219 -2.671875 C 0.699219 -2.730469 0.710938 -2.777344 0.710938 -2.820312 C 0.757812 -2.792969 0.800781 -2.777344 0.832031 -2.730469 C 1.007812 -2.449219 1.171875 -2.152344 1.382812 -1.902344 C 1.558594 -1.691406 1.78125 -1.515625 2.003906 -1.351562 C 2.242188 -1.1875 2.523438 -1.128906 2.820312 -1.113281 C 3 -1.113281 3.175781 -1.082031 3.386719 -1.070312 Z M 4.425781 -3.429688 C 4.425781 -3.503906 4.410156 -3.5625 4.425781 -3.625 C 4.558594 -4.304688 4.574219 -4.988281 4.589844 -5.671875 C 4.589844 -5.878906 4.558594 -6.089844 4.558594 -6.296875 C 4.558594 -6.339844 4.589844 -6.386719 4.601562 -6.429688 C 4.632812 -6.398438 4.675781 -6.371094 4.691406 -6.324219 C 4.738281 -6.074219 4.8125 -5.835938 4.8125 -5.582031 C 4.839844 -4.945312 4.78125 -4.320312 4.617188 -3.699219 C 4.601562 -3.609375 4.542969 -3.519531 4.484375 -3.414062 C 4.46875 -3.429688 4.453125 -3.429688 4.425781 -3.429688 Z M 2.65625 -8.226562 C 2.628906 -8.195312 2.597656 -8.167969 2.554688 -8.152344 C 2.035156 -7.945312 1.648438 -7.585938 1.351562 -7.113281 C 1.320312 -7.039062 1.261719 -6.980469 1.203125 -6.917969 C 1.1875 -6.90625 1.144531 -6.90625 1.113281 -6.90625 C 1.097656 -6.917969 1.082031 -6.964844 1.082031 -6.980469 C 1.097656 -7.039062 1.113281 -7.082031 1.128906 -7.128906 C 1.425781 -7.617188 1.796875 -8.046875 2.359375 -8.242188 C 2.449219 -8.269531 2.539062 -8.269531 2.628906 -8.285156 C 2.644531 -8.253906 2.644531 -8.242188 2.65625 -8.226562 Z M 2.65625 -8.226562 "/></g></g></g><g fill="#eb5066" fill-opacity="1"><g transform="translate(85.050563, 30.545909)"><g><path d="M 2.359375 -3.386719 C 2.359375 -3.386719 2.359375 -3.398438 2.359375 -3.398438 C 2.613281 -3.398438 2.867188 -3.386719 3.117188 -3.414062 C 3.398438 -3.429688 3.578125 -3.636719 3.578125 -3.90625 C 3.59375 -4.171875 3.414062 -4.394531 3.132812 -4.425781 C 2.835938 -4.441406 2.539062 -4.453125 2.242188 -4.453125 C 1.828125 -4.453125 1.394531 -4.425781 0.964844 -4.410156 C 0.773438 -4.394531 0.578125 -4.378906 0.386719 -4.351562 C 0.132812 -4.304688 0 -4.144531 0 -3.921875 C 0 -3.699219 0.148438 -3.535156 0.386719 -3.488281 C 0.503906 -3.472656 0.609375 -3.460938 0.726562 -3.460938 C 1.277344 -3.429688 1.8125 -3.398438 2.359375 -3.386719 Z M 2.984375 -3.625 C 3.117188 -3.800781 3.222656 -3.980469 3.339844 -4.15625 C 3.488281 -4.039062 3.460938 -3.921875 3.386719 -3.800781 C 3.3125 -3.652344 3.191406 -3.578125 2.984375 -3.625 Z M 0.28125 -4.054688 C 0.371094 -3.90625 0.445312 -3.785156 0.519531 -3.652344 C 0.429688 -3.535156 0.339844 -3.609375 0.28125 -3.667969 C 0.164062 -3.785156 0.164062 -3.90625 0.28125 -4.054688 Z M 0.28125 -4.054688 "/></g></g></g><g fill="#eb5066" fill-opacity="1"><g transform="translate(91.30151, 30.545909)"><g><path d="M 3.238281 -2.925781 C 3.191406 -2.925781 3.164062 -2.910156 3.164062 -2.925781 C 3.117188 -2.941406 3.089844 -2.953125 3.058594 -2.96875 C 2.671875 -3.25 2.359375 -3.609375 2.242188 -4.097656 C 2.167969 -4.394531 2.109375 -4.691406 2.078125 -5.003906 C 1.988281 -5.863281 2.109375 -6.710938 2.554688 -7.46875 C 2.730469 -7.808594 3 -8.09375 3.25 -8.390625 C 3.59375 -8.804688 4.023438 -9.042969 4.589844 -8.96875 C 4.632812 -8.96875 4.675781 -8.96875 4.722656 -8.96875 C 5.019531 -9 5.226562 -9.28125 5.183594 -9.59375 C 5.136719 -9.785156 5.035156 -9.933594 4.855469 -10.023438 C 4.46875 -10.214844 4.070312 -10.289062 3.652344 -10.214844 C 3.042969 -10.113281 2.496094 -9.859375 2.035156 -9.457031 C 1.351562 -8.878906 0.890625 -8.167969 0.550781 -7.363281 C -0.03125 -6.058594 -0.179688 -4.707031 0.28125 -3.339844 C 0.710938 -2.078125 1.542969 -1.21875 2.851562 -0.875 C 3.238281 -0.785156 3.652344 -0.800781 4.054688 -0.773438 C 4.21875 -0.773438 4.351562 -0.726562 4.453125 -0.578125 C 4.691406 -0.28125 4.988281 -0.0429688 5.332031 0.117188 C 5.582031 0.253906 5.878906 0.3125 6.164062 0.371094 C 6.414062 0.429688 6.621094 0.3125 6.757812 0.0742188 C 6.917969 -0.222656 6.785156 -0.59375 6.445312 -0.726562 C 6.191406 -0.847656 5.96875 -0.996094 5.804688 -1.203125 C 6.027344 -1.441406 6.238281 -1.648438 6.429688 -1.871094 C 6.59375 -2.050781 6.726562 -2.257812 6.84375 -2.449219 C 7.15625 -2.925781 7.453125 -3.398438 7.558594 -3.964844 C 7.675781 -4.5 7.734375 -5.035156 7.734375 -5.582031 C 7.734375 -6.175781 7.585938 -6.742188 7.320312 -7.261719 C 6.964844 -7.945312 6.398438 -8.359375 5.613281 -8.390625 C 4.691406 -8.433594 3.996094 -8.0625 3.546875 -7.246094 C 3.339844 -6.859375 3.191406 -6.460938 3.132812 -6.027344 C 3 -5.109375 3 -4.171875 3.191406 -3.25 C 3.222656 -3.148438 3.222656 -3.027344 3.238281 -2.925781 Z M 4.886719 -2.71875 C 4.691406 -3.074219 4.617188 -3.414062 4.542969 -3.757812 C 4.367188 -4.617188 4.394531 -5.480469 4.675781 -6.324219 C 4.75 -6.5625 4.855469 -6.785156 4.972656 -7.007812 C 5.09375 -7.230469 5.210938 -7.277344 5.464844 -7.246094 C 5.878906 -7.1875 6.117188 -6.917969 6.265625 -6.5625 C 6.472656 -6.074219 6.488281 -5.566406 6.371094 -5.0625 C 6.191406 -4.203125 5.746094 -3.488281 5.121094 -2.878906 C 5.0625 -2.820312 4.972656 -2.777344 4.886719 -2.71875 Z M 0.859375 -3.101562 C 1.277344 -2.257812 2.019531 -1.796875 2.730469 -1.21875 C 2.644531 -1.21875 2.582031 -1.203125 2.554688 -1.21875 C 2.480469 -1.234375 2.40625 -1.261719 2.332031 -1.308594 C 1.722656 -1.648438 1.234375 -2.125 0.921875 -2.746094 C 0.859375 -2.835938 0.785156 -2.925781 0.859375 -3.101562 Z M 6.636719 -6.414062 C 7.082031 -6.027344 6.90625 -4.574219 6.398438 -4.1875 C 6.398438 -4.246094 6.398438 -4.292969 6.414062 -4.335938 C 6.460938 -4.515625 6.519531 -4.691406 6.578125 -4.871094 C 6.695312 -5.316406 6.742188 -5.777344 6.667969 -6.25 C 6.652344 -6.28125 6.652344 -6.324219 6.636719 -6.414062 Z M 4.601562 -7.957031 C 4.320312 -7.648438 4.023438 -7.378906 3.859375 -7.023438 C 3.710938 -6.667969 3.5625 -6.324219 3.414062 -5.953125 C 3.207031 -6.535156 4.007812 -7.914062 4.601562 -7.957031 Z M 2.878906 -9.710938 C 2.273438 -9.308594 1.8125 -8.746094 1.335938 -8.152344 C 1.351562 -8.671875 2.347656 -9.652344 2.878906 -9.710938 Z M 4.824219 -0.757812 C 5.34375 -0.429688 5.789062 0.0429688 6.488281 0.03125 C 6.398438 0.179688 6.25 0.207031 6.117188 0.164062 C 5.910156 0.105469 5.6875 0.0429688 5.492188 -0.0742188 C 5.257812 -0.222656 5.0625 -0.429688 4.855469 -0.609375 C 4.824219 -0.636719 4.8125 -0.683594 4.78125 -0.710938 C 4.796875 -0.726562 4.8125 -0.742188 4.824219 -0.757812 Z M 5.035156 -9.503906 C 5.109375 -9.371094 5.019531 -9.265625 4.914062 -9.191406 C 4.78125 -9.085938 4.632812 -9.042969 4.46875 -9.160156 C 4.664062 -9.28125 4.839844 -9.382812 5.035156 -9.503906 Z M 5.035156 -9.503906 "/></g></g></g><g fill="#eb5066" fill-opacity="1"><g transform="translate(101.694804, 30.545909)"><g><path d="M 5.003906 -1.679688 C 5.0625 -1.425781 5.121094 -1.1875 5.183594 -0.949219 C 5.210938 -0.800781 5.257812 -0.625 5.316406 -0.476562 C 5.417969 -0.222656 5.628906 -0.105469 5.894531 -0.105469 C 6.175781 -0.105469 6.371094 -0.222656 6.472656 -0.476562 C 6.535156 -0.636719 6.5625 -0.816406 6.578125 -0.980469 C 6.636719 -2.210938 6.5625 -3.472656 6.339844 -4.675781 C 6.101562 -5.984375 5.835938 -7.453125 5.226562 -8.628906 C 4.988281 -9.101562 4.664062 -9.488281 4.1875 -9.753906 C 3.890625 -9.933594 3.578125 -10.007812 3.238281 -9.917969 C 2.820312 -9.816406 2.507812 -9.5625 2.242188 -9.25 C 0.402344 -7.1875 0.296875 -3.964844 0.03125 -1.367188 C 0 -1.113281 0 -0.847656 0.015625 -0.59375 C 0.0429688 -0.296875 0.238281 -0.0898438 0.503906 -0.0742188 C 0.816406 -0.0429688 1.007812 -0.191406 1.097656 -0.503906 C 1.128906 -0.609375 1.15625 -0.710938 1.171875 -0.816406 C 1.1875 -0.964844 1.261719 -1.039062 1.425781 -1.070312 C 2.078125 -1.203125 2.746094 -1.351562 3.398438 -1.484375 C 3.921875 -1.589844 4.441406 -1.679688 5.003906 -1.679688 Z M 3.386719 -8.195312 C 3.546875 -8.121094 3.609375 -7.988281 3.652344 -7.855469 C 3.785156 -7.453125 3.921875 -7.039062 4.023438 -6.621094 C 4.230469 -5.65625 4.425781 -4.691406 4.632812 -3.710938 C 4.632812 -3.683594 4.632812 -3.652344 4.632812 -3.578125 C 3.578125 -3.460938 2.554688 -3.191406 1.558594 -2.761719 C 1.558594 -2.851562 1.542969 -2.894531 1.542969 -2.925781 C 1.738281 -4.171875 1.960938 -5.40625 2.421875 -6.578125 C 2.613281 -7.082031 2.867188 -7.558594 3.191406 -7.988281 C 3.25 -8.0625 3.324219 -8.121094 3.386719 -8.195312 Z M 2.273438 -8.671875 C 2.257812 -8.925781 2.507812 -9.234375 2.878906 -9.488281 C 3.164062 -9.667969 3.460938 -9.753906 3.785156 -9.621094 C 3.503906 -9.53125 3.191406 -9.488281 2.96875 -9.28125 C 2.730469 -9.085938 2.507812 -8.878906 2.273438 -8.671875 Z M 5.34375 -1.558594 C 5.507812 -1.097656 5.582031 -0.59375 6.148438 -0.371094 C 6.011719 -0.28125 5.894531 -0.3125 5.820312 -0.355469 C 5.714844 -0.429688 5.613281 -0.519531 5.539062 -0.625 C 5.359375 -0.90625 5.332031 -1.21875 5.34375 -1.558594 Z M 0.253906 -1.277344 C 0.339844 -0.921875 0.296875 -0.503906 0.710938 -0.296875 C 0.503906 -0.207031 0.355469 -0.253906 0.265625 -0.460938 C 0.132812 -0.726562 0.105469 -0.996094 0.253906 -1.277344 Z M 0.253906 -1.277344 "/></g></g></g><g fill="#eb5066" fill-opacity="1"><g transform="translate(110.959718, 30.545909)"><g><path d="M 3.28125 -2.167969 C 3.265625 -2.167969 3.25 -2.183594 3.238281 -2.183594 C 3.207031 -2.226562 3.175781 -2.273438 3.175781 -2.316406 C 2.894531 -3.460938 2.613281 -4.601562 2.316406 -5.746094 C 2.0625 -6.769531 1.78125 -7.78125 1.484375 -8.789062 C 1.425781 -9.011719 1.308594 -9.222656 1.171875 -9.398438 C 1.023438 -9.605469 0.785156 -9.695312 0.519531 -9.636719 C 0.253906 -9.5625 0.0742188 -9.382812 0.03125 -9.101562 C 0.015625 -9 0 -8.878906 0.015625 -8.761719 C 0.0429688 -8.417969 0.0742188 -8.0625 0.117188 -7.722656 C 0.207031 -7.066406 0.3125 -6.429688 0.402344 -5.789062 C 0.488281 -4.945312 0.578125 -4.113281 0.773438 -3.296875 C 0.933594 -2.613281 1.097656 -1.914062 1.394531 -1.277344 C 1.679688 -0.699219 2.125 -0.3125 2.746094 -0.179688 C 3.296875 -0.0585938 3.742188 -0.191406 4.039062 -0.667969 C 4.1875 -0.90625 4.351562 -1.15625 4.46875 -1.425781 C 4.929688 -2.480469 5.300781 -3.578125 5.65625 -4.691406 C 6.089844 -6 6.503906 -7.320312 6.917969 -8.640625 C 6.992188 -8.851562 7.039062 -9.074219 7.023438 -9.296875 C 7.007812 -9.726562 6.652344 -10.007812 6.207031 -9.949219 C 5.96875 -9.902344 5.789062 -9.753906 5.6875 -9.546875 C 5.582031 -9.308594 5.492188 -9.074219 5.417969 -8.835938 C 4.988281 -7.453125 4.558594 -6.058594 4.128906 -4.675781 C 3.90625 -3.921875 3.652344 -3.175781 3.398438 -2.421875 C 3.371094 -2.332031 3.324219 -2.257812 3.28125 -2.167969 Z M 3.296875 -0.535156 C 3.132812 -0.386719 2.953125 -0.414062 2.777344 -0.476562 C 2.316406 -0.609375 1.988281 -0.921875 1.796875 -1.335938 C 1.632812 -1.632812 1.558594 -1.976562 1.441406 -2.285156 C 1.425781 -2.316406 1.441406 -2.359375 1.441406 -2.449219 C 1.515625 -2.375 1.558594 -2.332031 1.574219 -2.285156 C 1.679688 -2.078125 1.78125 -1.855469 1.886719 -1.648438 C 2.152344 -1.113281 2.554688 -0.726562 3.164062 -0.59375 C 3.207031 -0.578125 3.25 -0.5625 3.296875 -0.535156 Z M 6.59375 -9.652344 C 6.429688 -9.5625 6.25 -9.503906 6.117188 -9.414062 C 6 -9.308594 5.910156 -9.160156 5.804688 -9.027344 C 5.714844 -9.234375 5.789062 -9.457031 6.027344 -9.636719 C 6.222656 -9.785156 6.398438 -9.785156 6.59375 -9.652344 Z M 0.296875 -8.449219 C 0.179688 -8.671875 0.238281 -8.894531 0.328125 -9.117188 C 0.402344 -9.324219 0.488281 -9.382812 0.710938 -9.398438 C 0.636719 -9.234375 0.550781 -9.085938 0.488281 -8.925781 C 0.429688 -8.761719 0.402344 -8.597656 0.371094 -8.433594 C 0.339844 -8.433594 0.328125 -8.433594 0.296875 -8.449219 Z M 0.296875 -8.449219 "/></g></g></g><g fill="#eb5066" fill-opacity="1"><g transform="translate(120.655196, 30.545909)"><g><path d="M 2.464844 -1.589844 C 2.449219 -1.679688 2.449219 -1.738281 2.433594 -1.8125 C 2.40625 -2.6875 2.375 -3.5625 2.332031 -4.441406 C 2.316406 -4.824219 2.285156 -5.210938 2.273438 -5.597656 C 2.226562 -6.296875 2.183594 -7.007812 2.125 -7.707031 C 2.0625 -8.316406 1.988281 -8.9375 1.914062 -9.5625 C 1.886719 -9.726562 1.828125 -9.902344 1.753906 -10.050781 C 1.664062 -10.273438 1.46875 -10.363281 1.246094 -10.347656 C 1.007812 -10.335938 0.832031 -10.230469 0.757812 -10.007812 C 0.710938 -9.875 0.683594 -9.726562 0.683594 -9.59375 C 0.652344 -8.820312 0.636719 -8.046875 0.625 -7.277344 C 0.609375 -6.148438 0.609375 -5.003906 0.59375 -3.875 C 0.59375 -3.074219 0.5625 -2.257812 0.578125 -1.457031 C 0.578125 -1.1875 0.503906 -1.023438 0.265625 -0.890625 C 0.015625 -0.742188 -0.015625 -0.476562 0.015625 -0.207031 C 0.0585938 0.0585938 0.207031 0.253906 0.488281 0.328125 C 0.742188 0.386719 0.996094 0.386719 1.246094 0.339844 C 2.152344 0.179688 3.042969 0.179688 3.949219 0.3125 C 4.335938 0.355469 4.722656 0.445312 5.121094 0.488281 C 5.40625 0.519531 5.6875 0.460938 5.910156 0.265625 C 6.222656 0.015625 6.339844 -0.402344 6.222656 -0.773438 C 6.101562 -1.15625 5.746094 -1.425781 5.332031 -1.457031 C 5.195312 -1.457031 5.046875 -1.457031 4.914062 -1.457031 C 4.144531 -1.53125 3.371094 -1.617188 2.597656 -1.558594 C 2.570312 -1.558594 2.523438 -1.574219 2.464844 -1.589844 Z M 5.121094 0.238281 C 5.523438 0.0429688 5.835938 -0.207031 5.925781 -0.683594 C 6.058594 -0.476562 6.027344 -0.253906 5.835938 0 C 5.628906 0.253906 5.40625 0.339844 5.121094 0.238281 Z M 0.996094 -9.042969 C 0.785156 -9.324219 0.847656 -9.84375 1.054688 -10.050781 C 1.128906 -10.125 1.21875 -10.199219 1.351562 -10.15625 C 1.351562 -10.125 1.351562 -10.097656 1.351562 -10.097656 C 1.113281 -9.917969 1.082031 -9.652344 1.054688 -9.398438 C 1.023438 -9.28125 1.007812 -9.160156 0.996094 -9.042969 Z M 0.3125 -0.625 C 0.414062 -0.429688 0.460938 -0.238281 0.59375 -0.105469 C 0.710938 0.015625 0.90625 0.0585938 1.070312 0.148438 C 0.90625 0.253906 0.652344 0.222656 0.476562 0.0742188 C 0.253906 -0.105469 0.191406 -0.371094 0.3125 -0.625 Z M 0.3125 -0.625 "/></g></g></g><g fill="#eb5066" fill-opacity="1"><g transform="translate(129.593473, 30.545909)"><g><path d="M 1.8125 -5.628906 C 1.796875 -5.96875 1.765625 -6.3125 1.753906 -6.652344 C 1.707031 -7.1875 1.648438 -7.734375 1.5 -8.253906 C 1.394531 -8.613281 1.097656 -8.789062 0.742188 -8.703125 C 0.503906 -8.640625 0.328125 -8.449219 0.296875 -8.136719 C 0.238281 -7.5 0.179688 -6.875 0.132812 -6.222656 C 0.0898438 -5.109375 0.0429688 -3.996094 0.015625 -2.878906 C -0.015625 -2.449219 0.0585938 -2.050781 0.339844 -1.691406 C 0.699219 -1.246094 1.351562 -1.246094 1.707031 -1.707031 C 1.886719 -1.945312 2.003906 -2.226562 2.003906 -2.523438 C 2.003906 -2.792969 1.988281 -3.058594 1.976562 -3.324219 C 1.960938 -3.578125 1.902344 -3.832031 1.929688 -4.128906 C 2.523438 -4.203125 3.089844 -4.410156 3.726562 -4.335938 C 3.726562 -4.203125 3.726562 -4.070312 3.726562 -3.949219 C 3.699219 -2.953125 3.773438 -1.945312 3.890625 -0.949219 C 3.90625 -0.757812 3.964844 -0.5625 4.039062 -0.371094 C 4.21875 -0.015625 4.648438 0.0898438 4.972656 -0.148438 C 5.183594 -0.296875 5.285156 -0.519531 5.316406 -0.757812 C 5.40625 -1.394531 5.492188 -2.035156 5.539062 -2.671875 C 5.582031 -3.59375 5.582031 -4.527344 5.597656 -5.449219 C 5.597656 -6.265625 5.597656 -7.097656 5.566406 -7.898438 C 5.539062 -8.417969 5.480469 -8.9375 5.40625 -9.445312 C 5.359375 -9.785156 5.078125 -10.007812 4.765625 -9.992188 C 4.441406 -9.992188 4.203125 -9.769531 4.144531 -9.429688 C 4.113281 -9.234375 4.082031 -9.027344 4.054688 -8.835938 C 3.996094 -8.226562 3.933594 -7.632812 3.875 -7.023438 C 3.847656 -6.695312 3.832031 -6.355469 3.816406 -6.042969 C 3.132812 -5.894531 2.480469 -5.761719 1.8125 -5.628906 Z M 0.3125 -2.792969 C 0.414062 -2.570312 0.503906 -2.347656 0.636719 -2.136719 C 0.773438 -1.914062 1.007812 -1.796875 1.292969 -1.722656 C 1.128906 -1.589844 0.996094 -1.605469 0.859375 -1.664062 C 0.59375 -1.765625 0.414062 -1.976562 0.328125 -2.242188 C 0.28125 -2.421875 0.265625 -2.597656 0.253906 -2.777344 C 0.265625 -2.777344 0.28125 -2.792969 0.3125 -2.792969 Z M 4.839844 -0.28125 C 4.304688 -0.207031 3.980469 -0.683594 4.097656 -1.351562 C 4.144531 -1.261719 4.171875 -1.21875 4.1875 -1.171875 C 4.230469 -1.054688 4.277344 -0.921875 4.320312 -0.800781 C 4.394531 -0.625 4.5 -0.488281 4.675781 -0.402344 C 4.722656 -0.386719 4.75 -0.339844 4.839844 -0.28125 Z M 0.519531 -7.796875 C 0.429688 -8.09375 0.488281 -8.328125 0.683594 -8.480469 C 0.800781 -8.582031 0.949219 -8.628906 1.097656 -8.539062 C 0.964844 -8.433594 0.832031 -8.34375 0.742188 -8.226562 C 0.652344 -8.121094 0.609375 -7.972656 0.519531 -7.796875 Z M 4.304688 -8.96875 C 4.21875 -9.28125 4.277344 -9.503906 4.441406 -9.695312 C 4.558594 -9.828125 4.707031 -9.890625 4.886719 -9.800781 C 4.75 -9.679688 4.617188 -9.59375 4.515625 -9.457031 C 4.425781 -9.324219 4.378906 -9.160156 4.304688 -8.96875 Z M 4.304688 -8.96875 "/></g></g></g><g clip-path="url(#e4dbf21bd2)"><path fill="#193984" d="M 56.695312 31.195312 L 54.195312 31.195312 L 54.195312 29.324219 L 56.070312 29.324219 C 56.414062 29.324219 56.695312 29.042969 56.695312 28.699219 L 56.695312 11.84375 C 56.695312 11.625 56.578125 11.421875 56.390625 11.308594 C 53.082031 9.324219 53.234375 9.402344 53.117188 9.371094 C 53.089844 9.363281 53.066406 9.359375 53.042969 9.355469 C 53.035156 9.355469 53.027344 9.355469 53.019531 9.351562 C 52.964844 9.347656 52.910156 9.347656 52.863281 9.355469 C 52.792969 9.363281 50.800781 9.699219 49.203125 9.964844 L 49.203125 5.601562 C 49.203125 5.414062 49.117188 5.234375 48.96875 5.117188 C 45.566406 2.394531 45.835938 2.601562 45.753906 2.558594 C 45.652344 2.503906 45.542969 2.480469 45.433594 2.484375 C 45.414062 2.484375 45.398438 2.484375 45.378906 2.488281 C 45.371094 2.488281 45.332031 2.492188 45.273438 2.511719 C 45.214844 2.527344 42.507812 3.765625 37.707031 5.949219 C 37.484375 6.050781 37.34375 6.273438 37.34375 6.519531 L 37.34375 10.945312 C 32.976562 9.308594 33.179688 9.378906 33.101562 9.363281 C 33.023438 9.34375 32.9375 9.34375 32.855469 9.359375 C 32.84375 9.363281 32.835938 9.363281 32.828125 9.367188 C 32.777344 9.378906 32.730469 9.394531 32.679688 9.421875 C 32.671875 9.425781 32.664062 9.433594 32.65625 9.4375 C 32.644531 9.445312 32.628906 9.449219 32.617188 9.460938 C 32.613281 9.460938 32.613281 9.464844 32.609375 9.46875 C 32.5625 9.5 30.726562 10.878906 30.101562 11.347656 C 29.945312 11.464844 29.851562 11.648438 29.851562 11.84375 L 29.851562 28.699219 C 29.851562 29.042969 30.132812 29.324219 30.476562 29.324219 L 31.101562 29.324219 L 31.101562 31.195312 L 29.851562 31.195312 C 29.507812 31.195312 29.230469 31.472656 29.230469 31.820312 C 29.230469 32.164062 29.507812 32.445312 29.851562 32.445312 C 30.214844 32.445312 56.324219 32.445312 56.695312 32.445312 C 57.039062 32.445312 57.316406 32.164062 57.316406 31.820312 C 57.316406 31.472656 57.039062 31.195312 56.695312 31.195312 Z M 52.949219 31.195312 L 51.074219 31.195312 L 51.074219 29.324219 L 52.949219 29.324219 Z M 55.445312 28.074219 L 53.574219 28.074219 L 53.574219 11.074219 L 55.445312 12.199219 Z M 52.324219 28.074219 L 51.074219 28.074219 L 51.074219 25.578125 C 51.074219 25.234375 50.796875 24.953125 50.453125 24.953125 L 46.082031 24.953125 L 46.082031 11.75 L 52.324219 10.710938 Z M 47.953125 10.171875 L 46.082031 10.484375 L 46.082031 4.40625 L 47.953125 5.902344 Z M 38.59375 6.921875 L 44.832031 4.078125 C 44.832031 4.898438 44.832031 23.972656 44.832031 24.953125 L 40.464844 24.953125 C 40.121094 24.953125 39.839844 25.234375 39.839844 25.578125 L 39.839844 28.074219 L 38.59375 28.074219 C 38.59375 27.0625 38.59375 7.921875 38.59375 6.921875 Z M 37.34375 28.074219 L 33.597656 28.074219 L 33.597656 10.875 L 37.34375 12.277344 Z M 31.101562 12.15625 L 32.351562 11.222656 L 32.351562 28.074219 C 31.914062 28.074219 31.539062 28.074219 31.101562 28.074219 Z M 32.351562 29.324219 C 33.867188 29.324219 38.320312 29.324219 39.839844 29.324219 L 39.839844 31.195312 L 32.351562 31.195312 Z M 41.089844 31.195312 C 41.089844 30.589844 41.089844 26.808594 41.089844 26.203125 C 42.144531 26.203125 48.761719 26.203125 49.828125 26.203125 C 49.828125 26.804688 49.828125 30.585938 49.828125 31.195312 Z M 41.089844 31.195312 " fill-opacity="1" fill-rule="nonzero"/></g><path fill="#193984" d="M 39.839844 7.476562 L 41.089844 7.476562 L 41.089844 9.972656 L 39.839844 9.972656 Z M 39.839844 7.476562 " fill-opacity="1" fill-rule="nonzero"/><path fill="#193984" d="M 41.710938 7.476562 L 42.960938 7.476562 L 42.960938 9.972656 L 41.710938 9.972656 Z M 41.710938 7.476562 " fill-opacity="1" fill-rule="nonzero"/><path fill="#193984" d="M 39.839844 10.597656 L 41.089844 10.597656 L 41.089844 13.09375 L 39.839844 13.09375 Z M 39.839844 10.597656 " fill-opacity="1" fill-rule="nonzero"/><path fill="#193984" d="M 41.710938 10.597656 L 42.960938 10.597656 L 42.960938 13.09375 L 41.710938 13.09375 Z M 41.710938 10.597656 " fill-opacity="1" fill-rule="nonzero"/><path fill="#193984" d="M 39.839844 13.71875 L 41.089844 13.71875 L 41.089844 16.214844 L 39.839844 16.214844 Z M 39.839844 13.71875 " fill-opacity="1" fill-rule="nonzero"/><path fill="#193984" d="M 41.710938 13.71875 L 42.960938 13.71875 L 42.960938 16.214844 L 41.710938 16.214844 Z M 41.710938 13.71875 " fill-opacity="1" fill-rule="nonzero"/><path fill="#193984" d="M 39.839844 16.839844 L 41.089844 16.839844 L 41.089844 19.335938 L 39.839844 19.335938 Z M 39.839844 16.839844 " fill-opacity="1" fill-rule="nonzero"/><path fill="#193984" d="M 34.847656 13.71875 L 36.09375 13.71875 L 36.09375 16.214844 L 34.847656 16.214844 Z M 34.847656 13.71875 " fill-opacity="1" fill-rule="nonzero"/><path fill="#193984" d="M 34.847656 16.839844 L 36.09375 16.839844 L 36.09375 19.335938 L 34.847656 19.335938 Z M 34.847656 16.839844 " fill-opacity="1" fill-rule="nonzero"/><path fill="#193984" d="M 34.847656 19.960938 L 36.09375 19.960938 L 36.09375 22.457031 L 34.847656 22.457031 Z M 34.847656 19.960938 " fill-opacity="1" fill-rule="nonzero"/><path fill="#193984" d="M 34.847656 23.082031 L 36.09375 23.082031 L 36.09375 25.578125 L 34.847656 25.578125 Z M 34.847656 23.082031 " fill-opacity="1" fill-rule="nonzero"/><path fill="#193984" d="M 41.710938 16.839844 L 42.960938 16.839844 L 42.960938 19.335938 L 41.710938 19.335938 Z M 41.710938 16.839844 " fill-opacity="1" fill-rule="nonzero"/><path fill="#193984" d="M 46.707031 12.46875 L 47.953125 12.46875 L 47.953125 14.34375 L 46.707031 14.34375 Z M 46.707031 12.46875 " fill-opacity="1" fill-rule="nonzero"/><path fill="#193984" d="M 48.578125 12.46875 L 49.828125 12.46875 L 49.828125 14.34375 L 48.578125 14.34375 Z M 48.578125 12.46875 " fill-opacity="1" fill-rule="nonzero"/><path fill="#193984" d="M 50.453125 12.46875 L 51.699219 12.46875 L 51.699219 14.34375 L 50.453125 14.34375 Z M 50.453125 12.46875 " fill-opacity="1" fill-rule="nonzero"/><path fill="#193984" d="M 46.707031 14.964844 L 47.953125 14.964844 L 47.953125 16.839844 L 46.707031 16.839844 Z M 46.707031 14.964844 " fill-opacity="1" fill-rule="nonzero"/><path fill="#193984" d="M 48.578125 14.964844 L 49.828125 14.964844 L 49.828125 16.839844 L 48.578125 16.839844 Z M 48.578125 14.964844 " fill-opacity="1" fill-rule="nonzero"/><path fill="#193984" d="M 50.453125 14.964844 L 51.699219 14.964844 L 51.699219 16.839844 L 50.453125 16.839844 Z M 50.453125 14.964844 " fill-opacity="1" fill-rule="nonzero"/><path fill="#193984" d="M 46.707031 17.460938 L 47.953125 17.460938 L 47.953125 19.335938 L 46.707031 19.335938 Z M 46.707031 17.460938 " fill-opacity="1" fill-rule="nonzero"/><path fill="#193984" d="M 48.578125 17.460938 L 49.828125 17.460938 L 49.828125 19.335938 L 48.578125 19.335938 Z M 48.578125 17.460938 " fill-opacity="1" fill-rule="nonzero"/><path fill="#193984" d="M 50.453125 17.460938 L 51.699219 17.460938 L 51.699219 19.335938 L 50.453125 19.335938 Z M 50.453125 17.460938 " fill-opacity="1" fill-rule="nonzero"/><path fill="#193984" d="M 46.707031 19.960938 L 47.953125 19.960938 L 47.953125 21.832031 L 46.707031 21.832031 Z M 46.707031 19.960938 " fill-opacity="1" fill-rule="nonzero"/><path fill="#193984" d="M 48.578125 19.960938 L 49.828125 19.960938 L 49.828125 21.832031 L 48.578125 21.832031 Z M 48.578125 19.960938 " fill-opacity="1" fill-rule="nonzero"/><path fill="#193984" d="M 46.707031 22.457031 L 47.953125 22.457031 L 47.953125 24.328125 L 46.707031 24.328125 Z M 46.707031 22.457031 " fill-opacity="1" fill-rule="nonzero"/><path fill="#193984" d="M 39.839844 19.960938 L 41.089844 19.960938 L 41.089844 22.457031 L 39.839844 22.457031 Z M 39.839844 19.960938 " fill-opacity="1" fill-rule="nonzero"/><path fill="#193984" d="M 42.335938 26.824219 L 48.578125 26.824219 L 48.578125 28.074219 L 42.335938 28.074219 Z M 42.335938 26.824219 " fill-opacity="1" fill-rule="nonzero"/><path fill="#193984" d="M 42.335938 28.699219 L 48.578125 28.699219 L 48.578125 29.945312 L 42.335938 29.945312 Z M 42.335938 28.699219 " fill-opacity="1" fill-rule="nonzero"/></svg>